# Blender 5.2.2 LTS
# www.blender.org
mtllib Snord6D.mtl
o Cube
v -0.845295 -0.096703 0.357660
v -0.845295 0.951336 0.357660
v -0.845295 -0.096703 -0.357660
v -0.845295 0.951336 -0.357660
v 1.155579 -0.122056 0.357660
v 1.154705 0.951336 0.357660
v 1.155579 -0.122056 -0.357660
v 1.154705 0.951336 -0.357660
v -0.555209 -0.147408 0.357660
v -0.555209 -0.147408 -0.357660
v -0.555209 -0.553046 0.357660
v -0.555209 -0.553046 -0.357660
v 1.156453 -0.553046 0.357660
v 1.156453 -0.553046 -0.357660
v 0.504988 -0.096703 -0.357660
v -0.161679 -0.096703 -0.357660
v -0.161679 0.951336 -0.357660
v 0.504988 0.951336 -0.357660
v -0.161679 -0.096703 0.357660
v 0.504988 -0.096703 0.357660
v 0.504988 0.951336 0.357660
v -0.161679 0.951336 0.357660
v 0.600405 -0.147408 -0.357660
v 0.029851 -0.147408 -0.357660
v 0.029851 -0.147408 0.357660
v 0.600405 -0.147408 0.357660
v 0.600405 -0.553046 -0.357660
v 0.029851 -0.553046 -0.357660
v 0.029851 -0.553046 0.357660
v 0.600405 -0.553046 0.357660
v -0.555209 -0.868001 0.357660
v -0.555209 -0.868001 -0.357660
v 0.029851 -0.868001 -0.357660
v 0.029851 -0.868001 0.357660
v 1.156453 -0.853046 0.357660
v 1.156453 -0.853046 -0.357660
v 0.600405 -0.853046 -0.357660
v 0.600405 -0.853046 0.357660
v 0.583241 0.329922 0.386960
v 0.583241 0.763987 0.386960
v 0.583241 0.329922 -0.386961
v 0.583241 0.763987 -0.386961
v 1.017306 0.329922 0.386960
v 1.017306 0.763987 0.386960
v 1.017306 0.329922 -0.386961
v 1.017306 0.763987 -0.386961
v 0.652945 -0.053410 0.382154
v 0.652945 -0.174018 0.382154
v 0.652945 -0.053410 -0.382154
v 0.652945 -0.174018 -0.382154
v -0.863715 -0.053410 0.382154
v -0.863715 -0.174018 0.382154
v -0.863715 -0.053410 -0.382154
v -0.863715 -0.174018 -0.382154
v -0.777117 -0.039409 0.293091
v -0.781786 0.887827 0.294151
v -0.777117 -0.039409 -0.293091
v -0.781786 0.887827 -0.294151
v 1.077813 -0.122166 0.279862
v 1.091225 0.887804 0.294147
v 1.077813 -0.122166 -0.279862
v 1.091225 0.887804 -0.294147
v -0.515783 -0.114276 0.260460
v -0.515783 -0.114276 -0.260460
v -0.477427 -0.553046 0.279878
v -0.477427 -0.553046 -0.279878
v 1.078647 -0.553125 0.279903
v 1.078647 -0.553125 -0.279903
v 0.504988 -0.096703 -0.247660
v -0.161679 -0.096703 -0.247660
v -0.161679 0.873554 -0.279878
v 0.504988 0.873554 -0.279878
v -0.161679 -0.096703 0.247660
v 0.504988 -0.096703 0.247660
v 0.504988 0.873554 0.279878
v -0.161679 0.873554 0.279878
v 0.600405 -0.147408 -0.247660
v 0.029851 -0.147408 -0.247660
v 0.029851 -0.147408 0.247660
v 0.600405 -0.147408 0.247660
v 0.633571 -0.519880 -0.258161
v -0.003315 -0.519880 -0.258161
v -0.003315 -0.519880 0.258161
v 0.633571 -0.519880 0.258161
v -0.491700 -0.804492 0.294151
v -0.491700 -0.804492 -0.294151
v -0.033658 -0.804492 -0.294151
v -0.033658 -0.804492 0.294151
v 1.092945 -0.789537 0.294151
v 1.092945 -0.789537 -0.294151
v 0.663913 -0.789537 -0.294151
v 0.663913 -0.789537 0.294151
v 0.646749 0.393431 0.323452
v 0.646749 0.700479 0.323452
v 0.646749 0.393431 -0.323452
v 0.646749 0.700479 -0.323452
v 0.953797 0.393431 0.323452
v 0.953797 0.700479 0.323452
v 0.953797 0.393431 -0.323452
v 0.953797 0.700479 -0.323452
v 0.589437 -0.116919 0.318645
v 0.589437 -0.110509 0.318645
v 0.589437 -0.116919 -0.318645
v 0.589437 -0.110509 -0.318645
v -0.800207 -0.116919 0.318645
v -0.800207 -0.110509 0.318645
v -0.800207 -0.116919 -0.318645
v -0.800207 -0.110509 -0.318645
vn -1.0000 -0.0000 -0.0000
vn -0.0000 -0.0000 -1.0000
vn 1.0000 0.0008 -0.0000
vn -0.0000 -0.0000 1.0000
vn -0.0000 1.0000 -0.0000
vn 1.0000 0.0020 -0.0000
vn -0.1722 -0.9851 -0.0000
vn -0.0000 -1.0000 -0.0000
vn 1.0000 -0.0000 -0.0000
vn 1.0000 0.0050 -0.0000
vn 0.0403 0.0232 0.9989
vn -0.9999 0.0133 -0.0000
vn -0.0473 0.0174 -0.9987
vn -0.0413 0.1091 -0.9932
vn -0.0230 -0.9997 -0.0000
vn -1.0000 -0.0019 -0.0000
vn 0.0608 0.1145 0.9916
vn 0.2754 0.9613 -0.0000
vn 0.9937 0.1118 -0.0000
vn 0.9962 0.0871 -0.0000
vn -0.0338 -0.0371 -0.9987
vn 0.0583 -0.0106 0.9982
vn -0.0338 -0.0371 0.9987
vn -0.0000 -0.0282 0.9996
vn 0.0583 -0.0106 -0.9982
vn -0.0000 -0.0282 -0.9996
vn -0.0199 -0.0917 0.9956
vn -0.0413 0.1091 0.9932
vn 0.0243 -0.9997 -0.0000
vn 0.0608 0.1145 -0.9916
vn 0.0403 0.0232 -0.9989
vn -0.0000 0.0332 -0.9994
vn -0.0473 0.0174 0.9987
vn -0.0000 0.0332 0.9994
vn -0.9944 0.1060 -0.0000
vn 0.9984 -0.0567 -0.0000
vn -0.0199 -0.0917 -0.9956
vn 0.0211 -0.0969 -0.9951
vn -0.9982 -0.0604 -0.0000
vn 0.0211 -0.0969 0.9951
vt 0.391935 0.586631
vt 0.442407 0.586631
vt 0.442407 0.637102
vt 0.391935 0.637102
vt 0.391935 0.671178
vt 0.442407 0.671178
vt 0.442407 0.687574
vt 0.391935 0.687574
vt 0.442407 0.738045
vt 0.391935 0.738045
vt 0.391935 0.771265
vt 0.442407 0.771265
vt 0.442407 0.788517
vt 0.391935 0.788517
vt 0.475627 0.687574
vt 0.492878 0.687574
vt 0.492878 0.738045
vt 0.475627 0.738045
vt 0.375539 0.738045
vt 0.375539 0.687574
vt 0.391935 0.654354
vt 0.391935 0.754441
vt 0.358716 0.687574
vt 0.358716 0.738045
vt 0.458803 0.687574
vt 0.458803 0.738045
vt 0.442407 0.754441
vt 0.442407 0.654354
vt 0.924250 0.386151
vt 0.950946 0.386151
vt 0.950946 0.412847
vt 0.924250 0.412847
vt 0.950946 0.439542
vt 0.924250 0.439542
vt 0.950946 0.466238
vt 0.924250 0.466238
vt 0.950946 0.492934
vt 0.924250 0.492934
vt 0.897555 0.439542
vt 0.897555 0.466238
vt 0.977642 0.439542
vt 0.977642 0.466238
vt 0.916219 0.205208
vt 0.934174 0.205208
vt 0.934174 0.223163
vt 0.916219 0.223163
vt 0.934174 0.241117
vt 0.916219 0.241117
vt 0.934174 0.259072
vt 0.916219 0.259072
vt 0.934174 0.277026
vt 0.916219 0.277026
vt 0.898265 0.241117
vt 0.898265 0.259072
vt 0.952128 0.241117
vt 0.952128 0.259072
s 0
usemtl Material.001
f 1/1/1 2/2/1 4/3/1 3/4/1
f 15/5/2 18/6/2 8/7/2 7/8/2
f 7/8/3 8/7/3 6/9/3 5/10/3
f 19/11/4 22/12/4 2/13/4 1/14/4
f 19/11/4 1/14/4 9/14/4 25/11/4
f 17/15/5 4/16/5 2/17/5 22/18/5
f 7/8/6 5/10/6 13/10/6 14/8/6
f 15/5/2 7/8/2 23/5/2
f 1/1/7 3/4/7 10/4/7 9/1/7
f 30/19/1 27/20/1 37/20/1 38/19/1
f 9/1/1 10/4/1 12/4/1 11/1/1
f 25/11/4 9/14/4 11/14/4 29/11/4
f 23/5/2 7/8/2 14/8/2 27/5/2
f 10/4/2 24/21/2 28/21/2 12/4/2
f 24/21/2 23/5/2 27/5/2 28/21/2
f 5/10/4 26/22/4 30/22/4 13/10/4
f 26/22/4 25/11/4 29/11/4 30/22/4
f 12/4/2 28/21/2 33/21/2 32/4/2
f 28/23/8 27/20/8 30/19/8 29/24/8
f 3/4/2 16/21/2 24/21/2 10/4/2
f 16/21/2 15/5/2 23/5/2 24/21/2
f 8/7/5 18/25/5 21/26/5 6/9/5
f 18/25/5 17/15/5 22/18/5 21/26/5
f 5/10/4 20/22/4 26/22/4
f 20/22/4 19/11/4 25/11/4 26/22/4
f 5/10/4 6/9/4 21/27/4 20/22/4
f 20/22/4 21/27/4 22/12/4 19/11/4
f 3/4/2 4/3/2 17/28/2 16/21/2
f 16/21/2 17/28/2 18/6/2 15/5/2
f 32/4/8 33/21/8 34/24/8 31/14/8
f 28/23/9 29/24/9 34/24/9 33/23/9
f 11/1/1 12/4/1 32/4/1 31/1/1
f 29/11/4 11/14/4 31/14/4 34/11/4
f 37/20/8 36/8/8 35/10/8 38/19/8
f 13/10/4 30/22/4 38/22/4 35/10/4
f 14/8/9 13/10/9 35/10/9 36/8/9
f 27/5/2 14/8/2 36/8/2 37/5/2
usemtl Material.002
f 39/29/1 40/30/1 42/31/1 41/32/1
f 41/32/2 42/31/2 46/33/2 45/34/2
f 45/34/9 46/33/9 44/35/9 43/36/9
f 43/36/4 44/35/4 40/37/4 39/38/4
f 41/39/8 45/34/8 43/36/8 39/40/8
f 46/33/5 42/41/5 40/42/5 44/35/5
f 47/43/9 48/44/9 50/45/9 49/46/9
f 49/46/2 50/45/2 54/47/2 53/48/2
f 53/48/1 54/47/1 52/49/1 51/50/1
f 51/50/4 52/49/4 48/51/4 47/52/4
f 49/53/5 53/48/5 51/50/5 47/54/5
f 54/47/8 50/55/8 48/56/8 52/49/8
f 55/1/10 57/4/10 58/3/10 56/2/10
f 69/5/11 61/8/11 62/7/11 72/6/11
f 61/8/12 59/10/12 60/9/12 62/7/12
f 73/11/13 55/14/13 56/13/13 76/12/13
f 73/11/14 79/11/14 63/14/14 55/14/14
f 71/15/15 76/18/15 56/17/15 58/16/15
f 61/8/16 68/8/16 67/10/16 59/10/16
f 69/5/17 77/5/17 61/8/17
f 55/1/18 63/1/18 64/4/18 57/4/18
f 84/19/19 92/19/19 91/20/19 81/20/19
f 63/1/20 65/1/20 66/4/20 64/4/20
f 79/11/21 83/11/21 65/14/21 63/14/21
f 77/5/22 81/5/22 68/8/22 61/8/22
f 64/4/23 66/4/23 82/21/23 78/21/23
f 78/21/24 82/21/24 81/5/24 77/5/24
f 59/10/25 67/10/25 84/22/25 80/22/25
f 80/22/26 84/22/26 83/11/26 79/11/26
f 66/4/27 86/4/27 87/21/27 82/21/27
f 82/23/5 83/24/5 84/19/5 81/20/5
f 57/4/28 64/4/28 78/21/28 70/21/28
f 70/21/4 78/21/4 77/5/4 69/5/4
f 62/7/29 60/9/29 75/26/29 72/25/29
f 72/25/8 75/26/8 76/18/8 71/15/8
f 59/10/30 80/22/30 74/22/30
f 74/22/2 80/22/2 79/11/2 73/11/2
f 59/10/31 74/22/31 75/27/31 60/9/31
f 74/22/32 73/11/32 76/12/32 75/27/32
f 57/4/33 70/21/33 71/28/33 58/3/33
f 70/21/34 69/5/34 72/6/34 71/28/34
f 86/4/5 85/14/5 88/24/5 87/21/5
f 82/23/35 87/23/35 88/24/35 83/24/35
f 65/1/36 85/1/36 86/4/36 66/4/36
f 83/11/37 88/11/37 85/14/37 65/14/37
f 91/20/5 92/19/5 89/10/5 90/8/5
f 67/10/38 89/10/38 92/22/38 84/22/38
f 68/8/39 90/8/39 89/10/39 67/10/39
f 81/5/40 91/5/40 90/8/40 68/8/40
f 93/29/9 95/32/9 96/31/9 94/30/9
f 95/32/4 99/34/4 100/33/4 96/31/4
f 99/34/1 97/36/1 98/35/1 100/33/1
f 97/36/2 93/38/2 94/37/2 98/35/2
f 95/39/5 93/40/5 97/36/5 99/34/5
f 100/33/8 98/35/8 94/42/8 96/41/8
f 101/43/9 103/46/9 104/45/9 102/44/9
f 103/46/2 107/48/2 108/47/2 104/45/2
f 107/48/1 105/50/1 106/49/1 108/47/1
f 105/50/4 101/52/4 102/51/4 106/49/4
f 103/53/8 101/54/8 105/50/8 107/48/8
f 108/47/5 106/49/5 102/56/5 104/55/5
